<?xml version="1.0" encoding="utf-8"?>
<!-- Generator: Adobe Illustrator 25.0.1, SVG Export Plug-In . SVG Version: 6.00 Build 0)  -->
<svg version="1.1" xmlns="http://www.w3.org/2000/svg" xmlns:xlink="http://www.w3.org/1999/xlink" x="0px" y="0px"
	 viewBox="0 0 356.6 363" style="enable-background:new 0 0 356.6 363;" xml:space="preserve">
<style type="text/css">
	.st0{fill:#191628;}
	.st1{fill:#C7C7D0;}
</style>
<g id="Layer_2">
	<path class="st0" d="M14.1,155.1c-0.3-4.9,1.8-9.6,5.6-12.6l112.9-82c3.6-2.6,6.8-1.1,7.3,3.2l8.9,85.1c0.5,4.4,1.2,11.5,1.7,15.9
		l4.1,39.2c0.8,4.8,3.8,9,8.1,11.2l36,16c4.4,2.2,7.4,6.4,8.2,11.3l9,85.1c0.2,4.9-1.9,9.6-5.6,12.7l-30.7,22.2
		c-4.1,2.6-9.2,3.2-13.8,1.4L38,305.8c-4.3-2.3-7.4-6.4-8.2-11.3L14.1,155.1z"/>
	<path class="st0" d="M240.1,318.5c-3.6,2.6-6.8,1.1-7.3-3.2l-9-85.1c-0.5-4.4-1.2-11.5-1.7-15.9l-4.1-39.2c-0.8-4.8-3.8-9-8.1-11.2
		l-36-16c-4.4-2.2-7.4-6.4-8.2-11.3l-9-85.1c-0.2-4.9,1.9-9.6,5.6-12.7l30.7-22.2c4.1-2.6,9.2-3.2,13.8-1.4l127.8,58
		c4.3,2.3,7.4,6.4,8.2,11.3l15.8,139.4c0.3,4.9-1.8,9.6-5.6,12.6"/>
</g>
<g id="Layer_1">
	<path class="st1" d="M-1.9,139.1c-0.3-4.9,1.8-9.6,5.6-12.6l112.9-82c3.6-2.6,6.8-1.1,7.3,3.2l8.9,85.2c0.5,4.4,1.2,11.5,1.7,15.9
		l4.1,39.2c0.8,4.8,3.8,9,8.1,11.2l36,16c4.4,2.2,7.4,6.4,8.2,11.3l9,85.1c0.2,4.9-1.9,9.6-5.6,12.7l-30.7,22.2
		c-4.1,2.6-9.2,3.2-13.8,1.4L22,289.8c-4.3-2.3-7.4-6.4-8.2-11.3L-1.9,139.1z"/>
	<path class="st1" d="M224.1,302.5c-3.6,2.6-6.8,1.1-7.3-3.2l-9-85.1c-0.5-4.4-1.2-11.5-1.7-15.9l-4.1-39.2c-0.8-4.8-3.8-9-8.1-11.2
		l-36-16c-4.4-2.2-7.4-6.4-8.2-11.3l-9-85.1c-0.2-4.9,1.9-9.6,5.6-12.7l30.7-22.2c4.1-2.6,9.2-3.2,13.8-1.4l127.8,58
		c4.3,2.3,7.4,6.4,8.2,11.3l15.8,139.4c0.3,4.9-1.8,9.6-5.6,12.6"/>
</g>
</svg>
