<svg xmlns="http://www.w3.org/2000/svg" viewBox="0 0 356.63 362.96"><defs><style>.a{fill:#413a69;}.b{fill:#191628;}</style></defs><path class="a" d="M95.75,233.64A15.2,15.2,0,0,1,101.32,221L214.2,139c3.56-2.59,6.84-1.13,7.3,3.25l8.95,85.15c.46,4.37,1.21,11.53,1.67,15.91l4.13,39.21a15.38,15.38,0,0,0,8.14,11.21l36,16A15.38,15.38,0,0,1,288.55,321l9,85.14a15.36,15.36,0,0,1-5.64,12.66L261.2,441.05a15.23,15.23,0,0,1-13.75,1.39L119.7,384.35a15.74,15.74,0,0,1-8.18-11.27Z" transform="translate(-83.69 -80.52)"/><path class="a" d="M440.25,302.36A15.2,15.2,0,0,1,434.68,315L321.8,397c-3.56,2.59-6.84,1.13-7.3-3.25l-8.95-85.15c-.46-4.37-1.21-11.53-1.67-15.91l-4.13-39.21a15.38,15.38,0,0,0-8.14-11.21l-36-16A15.38,15.38,0,0,1,247.45,215l-9-85.14a15.36,15.36,0,0,1,5.64-12.66L274.8,95a15.23,15.23,0,0,1,13.75-1.39L416.3,151.65a15.74,15.74,0,0,1,8.18,11.27Z" transform="translate(-83.69 -80.52)"/><path class="b" d="M83.75,221.64A15.2,15.2,0,0,1,89.32,209L202.2,127c3.56-2.59,6.84-1.13,7.3,3.25l8.95,85.15c.46,4.37,1.21,11.53,1.67,15.91l4.13,39.21a15.38,15.38,0,0,0,8.14,11.21l36,16A15.38,15.38,0,0,1,276.55,309l9,85.14a15.36,15.36,0,0,1-5.64,12.66L249.2,429.05a15.23,15.23,0,0,1-13.75,1.39L107.7,372.35a15.74,15.74,0,0,1-8.18-11.27Z" transform="translate(-83.69 -80.52)"/><path class="b" d="M428.25,290.36A15.2,15.2,0,0,1,422.68,303L309.8,385c-3.56,2.59-6.84,1.13-7.3-3.25l-8.95-85.15c-.46-4.37-1.21-11.53-1.67-15.91l-4.13-39.21a15.38,15.38,0,0,0-8.14-11.21l-36-16A15.38,15.38,0,0,1,235.45,203l-9-85.14a15.36,15.36,0,0,1,5.64-12.66L262.8,83a15.23,15.23,0,0,1,13.75-1.39L404.3,139.65a15.74,15.74,0,0,1,8.18,11.27Z" transform="translate(-83.69 -80.52)"/></svg>